<svg xmlns="http://www.w3.org/2000/svg" viewBox="0 0 24 24">
    <path fill="#0288d1" d="M12.26154,9.63318c-0.00527,-0.09659 -0.00892,-0.19338 -0.01154,-0.28943l6.34375,-6.34375l3.40625,0l0,2l-2.59375,0l-4.33271,4.35385l-0.812,0l-2,0z M10.4348,13.4348l-1.4348,-1.4348l-1,1l2,2l0.26154,-0.26154l0,5.30945c-0.74031,0.59565 -1.67999,0.95209 -2.69904,0.95209c-2.96484,0 -4.99609,-3.22266 -5.34375,-4.3125c-1.03516,-3.24609 2.13672,-5.375 4.28125,-5.375c0.60547,0 1.05469,-0.51563 1.0625,-1.125c0.01562,-1.27344 0.86328,-2.35938 2,-2.875c0.16797,-0.07422 0.33594,-0.10938 0.5,-0.09375c0.49609,0.04297 0.93359,0.45312 0.9375,1c0.0132,1.8112 0.10998,2.87846 0.57745,3.71477c-0.52993,0.37913 -0.92955,0.8983 -1.14264,1.50128z M6,15l2,2l1,-1l-2,-2z"></path>
    <path fill="#0288d1" d="M22.16154,13.35385l-0.9,0l0,-2l-2,0l0,2l-3,0l0,-2l-2,0l0,2l-0.9,0c-0.6,0 -1.1,0.5 -1.1,1.1l0,7.8c0,0.6 0.5,1.1 1.1,1.1l8.8,0c0.6,0 1.1,-0.5 1.1,-1.1l0,-7.8c0,-0.6 -0.5,-1.1 -1.1,-1.1z M21.26154,21.35385l-7,0l0,-5l7,0z M18.26154,18.35385l2,0l0,2l-2,0z M15.26154,18.35385l2,0l0,2l-2,0z"></path>
</svg>